<?xml version="1.0" encoding="utf-8"?>
<!-- Generator: Adobe Illustrator 21.0.0, SVG Export Plug-In . SVG Version: 6.00 Build 0)  -->
<svg version="1.1" id="Livello_1" xmlns="http://www.w3.org/2000/svg" xmlns:xlink="http://www.w3.org/1999/xlink" x="0px" y="0px"
	 viewBox="0 0 192 23" style="enable-background:new 0 0 192 23;" xml:space="preserve">
<style type="text/css">
	.st0{fill:#7A8085;}
</style>
<g>
	<path class="st0" d="M121.5,6.2h1.5V2.8l1.7-0.4v3.7h2.6v1.2h-2.6v9.1c0,0.9,0.4,1.4,1.3,1.4c0.5,0,1-0.1,1.5-0.4l0.3,1
		c-0.6,0.4-1.3,0.6-2.3,0.6c-1.3,0-2.4-0.6-2.4-2.5V7.3h-1.5L121.5,6.2L121.5,6.2z"/>
	<path class="st0" d="M132.3,7.8c1.1-1.1,2.5-1.9,4-1.9c2,0,3.2,1,3.2,3.3v8.4l1.6,0.2v0.9h-3.3V9.6c0-1.6-0.6-2.3-1.9-2.3
		c-1.2,0-2.6,0.7-3.6,1.6v8.7l1.7,0.2v0.9h-5v-0.9l1.7-0.2V1.3L128.9,1V0h3.4V7.8L132.3,7.8z"/>
	<path class="st0" d="M142.5,12.4c0-4.7,2.1-6.5,4.9-6.5c2.9,0,4.6,1.7,4.6,6.1v0.7h-7.7c0,3.7,1.1,5.2,3.7,5.2c1.3,0,2.3-0.4,3.2-1
		l0.6,0.8c-1.1,0.9-2.4,1.4-4.1,1.4C144.6,19,142.5,17.3,142.5,12.4z M144.3,11.5h5.9c0-3.2-0.8-4.5-2.8-4.5
		C145.5,7,144.4,8.3,144.3,11.5z"/>
	<path class="st0" d="M163.4,7.9c1.1-1.2,2.4-2,3.8-2c2,0,3.1,1,3.1,3.3v8.5l1.6,0.2v0.8h-3.3v-9c0-1.6-0.6-2.4-1.9-2.4
		c-1.2,0-2.3,0.7-3.3,1.6v8.7l1.6,0.2v0.9h-3.3V9.7c0-1.6-0.6-2.4-1.9-2.4c-1.2,0-2.3,0.7-3.3,1.6v8.7l1.7,0.2v0.9h-5v-0.9l1.7-0.2
		V7.5l-1.7-0.3V6.2h3.1l0.2,1.7c1.1-1.1,2.3-2,3.8-2C161.9,5.9,163,6.5,163.4,7.9z"/>
	<path class="st0" d="M172.7,12.4c0-4.7,2.1-6.5,4.9-6.5c2.9,0,4.6,1.7,4.6,6.1v0.7h-7.7c0,3.7,1.1,5.2,3.7,5.2c1.3,0,2.3-0.4,3.2-1
		l0.6,0.8c-1.1,0.9-2.4,1.4-4.1,1.4C174.8,19,172.7,17.3,172.7,12.4z M174.5,11.5h5.9c0-3.2-0.8-4.5-2.8-4.5
		C175.7,7,174.6,8.3,174.5,11.5z"/>
	<path class="st0" d="M183.9,18v-2.5h1.2l0.4,1.9c0.7,0.3,1.2,0.4,2.2,0.4c1.9,0,2.8-0.9,2.8-2.3c0-1.5-0.7-2.1-2.8-2.7
		c-2-0.6-3.4-1.4-3.4-3.7c0-1.7,1.3-3.2,3.8-3.2c1.5,0,2.7,0.3,3.5,0.8v2.5h-1.1L190,7.3c-0.6-0.3-1.2-0.3-1.9-0.3
		c-1.5,0-2.4,0.7-2.4,2c0,1.3,0.7,1.8,2.5,2.4c2.1,0.7,3.8,1.4,3.8,4c0,2.4-1.7,3.6-4.4,3.6C186.1,19,184.8,18.6,183.9,18z"/>
	<path d="M38.5,10c0-1.3-0.4-1.8-1.4-1.8c-0.8,0-1.9,0.5-2.6,1V17l1.5,0.2v1.5h-5.8v-1.5l1.5-0.2V8.2l-1.5-0.3V6.2h3.9l0.3,1.4
		c1.1-1.1,2.4-1.8,3.9-1.8c1.9,0,3,1,3,3.2V17l1.5,0.2v1.5h-4.3V10L38.5,10z"/>
	<path d="M62.7,17.2v1.5h-6.4v-1.5l1.5-0.2V8.3l-1.5-0.3V6.2h3.8l0.4,2c0.9-1.3,1.9-2.2,3.5-2.2c0.2,0,0.4,0,0.5,0.1l-0.4,2.9
		c-0.3-0.1-0.6-0.2-1-0.2c-1,0-1.7,0.3-2.5,0.9V17L62.7,17.2z"/>
	<path d="M77,6.2h1.4V3.1l2.5-0.5v3.7h2.4v1.9h-2.4v7.6c0,0.9,0.3,1.3,1.1,1.3c0.5,0,1-0.1,1.3-0.3l0.4,1.7C83.1,18.7,82.3,19,81,19
		c-1.7,0-2.6-0.8-2.6-2.9V8.1H77V6.2z"/>
	<path d="M90.9,17.2v1.5H85v-1.5l1.5-0.2V8.2L85,7.9V6.2h4.3V17L90.9,17.2z M86.1,1.8c0-1,0.8-1.8,1.8-1.8c1,0,1.8,0.8,1.8,1.8
		c0,1-0.8,1.7-1.8,1.7C86.8,3.5,86.1,2.7,86.1,1.8z"/>
	<path d="M98.8,7.9V6.2h4.7v1.7l-1.1,0.2l-3.6,10.5h-2.7L92.5,8.1l-1.1-0.2V6.2h5.3v1.7l-1.2,0.2l1.7,5.5c0.3,1,0.5,1.9,0.6,2.9h0
		c0.1-1,0.4-2,0.7-2.9l1.6-5.5L98.8,7.9z"/>
	<path d="M76,17.1c-1.1,0-1.3-0.2-1.3-1.2V9.8c0-2.8-1.4-3.9-4.1-3.9c-1.9,0-3.6,0.6-4.9,1.4L66.5,9c1.1-0.6,2.2-0.9,3.5-0.9
		c1.5,0,1.8,0.8,1.8,2.2V11v0.2v1.6v0.1v3.2c-0.5,0.5-1.2,0.9-2.1,0.9c-1.1,0-1.6-0.5-1.6-2c0-1.7,0.7-2.2,2.6-2.3v-1.6
		c-3.9,0-5.5,1.2-5.5,4c0,2.6,1.5,3.8,3.6,3.8c1.6,0,2.4-0.7,3.1-1.4c0.3,1,1,1.4,2.1,1.4c0.8,0,1.5-0.2,2-0.5L76,17.1z"/>
	<path d="M54.7,17.1c-1.1,0-1.3-0.2-1.3-1.2V9.8c0-2.8-1.4-3.9-4.1-3.9c-1.9,0-3.6,0.6-4.9,1.4L45.2,9c1.1-0.6,2.2-0.9,3.5-0.9
		c1.5,0,1.8,0.8,1.8,2.2V11v0.2v1.6v0.1v3.2c-0.5,0.5-1.2,0.9-2.1,0.9c-1.1,0-1.6-0.5-1.6-2c0-1.7,0.7-2.2,2.6-2.3v-1.6
		c-3.9,0-5.5,1.2-5.5,4c0,2.6,1.5,3.8,3.6,3.8c1.6,0,2.4-0.7,3.1-1.4c0.3,1,1,1.4,2.1,1.4c0.8,0,1.5-0.2,2-0.5L54.7,17.1z"/>
	<path d="M108.1,13.1h6v-1.1c0-4.5-1.7-6-4.8-6c-3.2,0-5.2,1.9-5.2,6.5c0,4.7,1.9,6.6,5.5,6.6c1.9,0,3.2-0.5,4.4-1.5l-0.8-1.5
		c-1,0.6-1.8,1-3.2,1c-1.9,0-2.7-0.9-2.8-3c0-0.3-0.1-0.9-0.1-1.6c0-0.4,0-0.8,0-1.1v0c0.1-2.8,0.8-3.7,2.2-3.7c1.6,0,2,1,2,3.7
		h-3.1L108.1,13.1L108.1,13.1z"/>
	<path d="M17.7,20.3H0V23h17.7V20.3z"/>
	<path d="M0,8v11l5.4-3.8v-3.5L0,8z"/>
	<path d="M17.6,10.9V0l-5.4,3.7v3.4L17.6,10.9z"/>
	<path d="M17.7,19l0-6.7L0,0v6.6L17.7,19z"/>
</g>
</svg>
