<svg id="Livello_1" data-name="Livello 1" xmlns="http://www.w3.org/2000/svg" viewBox="0 0 192 23"><title>logo-naratispeechjuice</title><path d="M38.48,10c0-1.32-.36-1.83-1.37-1.83a4.51,4.51,0,0,0-2.57,1V17l1.45.19v1.47H30.22V17.17l1.5-.19V8.24l-1.5-.32V6.2h3.85l.32,1.45a5.57,5.57,0,0,1,3.91-1.77c1.86,0,3,1,3,3.19V17l1.5.19v1.47h-4.3V10Z"/><path d="M62.67,17.19v1.47H56.32V17.19l1.5-.19V8.26l-1.5-.32V6.22h3.79l.38,2A4.11,4.11,0,0,1,64,5.94a1.72,1.72,0,0,1,.49.06l-.36,2.94a2.22,2.22,0,0,0-1-.17,3.56,3.56,0,0,0-2.5.94V17Z"/><path d="M77,6.2h1.39V3.09l2.46-.53V6.22h2.44V8.09H80.9v7.58c0,.92.34,1.32,1.09,1.32a2.92,2.92,0,0,0,1.28-.32l.45,1.68A5.33,5.33,0,0,1,81,19c-1.71,0-2.59-.81-2.59-2.94V8.09H77Z"/><path d="M90.87,17.16v1.47H85V17.16l1.5-.19V8.24L85,7.92V6.2h4.32V17ZM86.07,1.77a1.75,1.75,0,1,1,1.73,1.75A1.74,1.74,0,0,1,86.07,1.77Z"/><path d="M76,17.12c-1.11,0-1.33-.17-1.33-1.15V9.8c0-2.83-1.39-3.92-4.06-3.92a9.16,9.16,0,0,0-4.92,1.41L66.52,9A7.58,7.58,0,0,1,70,8.09c1.48,0,1.84.79,1.84,2.17v5.86a2.79,2.79,0,0,1-2.12.94c-1.07,0-1.58-.53-1.58-2,0-1.73.73-2.21,2.63-2.26V11.22c-3.87,0-5.48,1.21-5.48,4S66.78,19,69,19a4,4,0,0,0,3.14-1.41A1.92,1.92,0,0,0,74.22,19a4.32,4.32,0,0,0,2-.47Z"/><path d="M54.74,17.12c-1.11,0-1.33-.17-1.33-1.15V9.8C53.41,7,52,5.88,49.35,5.88a9.16,9.16,0,0,0-4.92,1.41L45.24,9a7.58,7.58,0,0,1,3.51-.94c1.48,0,1.84.79,1.84,2.17v5.86a2.79,2.79,0,0,1-2.12.94c-1.07,0-1.58-.53-1.58-2,0-1.73.73-2.21,2.63-2.26V11.22c-3.87,0-5.48,1.21-5.48,4S45.5,19,47.68,19a4,4,0,0,0,3.14-1.41A1.92,1.92,0,0,0,52.94,19a4.32,4.32,0,0,0,2-.47Z"/><path d="M17.67,20.3H0V23H17.67Z"/><path d="M0,8V19l5.41-3.77V11.73Z"/><path d="M17.65,10.95V0L12.21,3.75V7.13Z"/><path d="M17.67,19l0-6.69L0,0V6.62Z"/><path d="M101.77,16q0,2.63-3.17,2.63T95.42,16v-1.6h1.31v1.67a1.27,1.27,0,0,0,.47,1.05,2.76,2.76,0,0,0,2.78,0,1.24,1.24,0,0,0,.47-1,3.09,3.09,0,0,0-.14-1,2.36,2.36,0,0,0-.57-.82L96.44,11a3.4,3.4,0,0,1-.8-1.14,3.88,3.88,0,0,1-.22-1.4,2.45,2.45,0,0,1,.78-1.94,3.48,3.48,0,0,1,2.36-.69q3,0,3,2.63v1.6h-1.31V8.43a1.31,1.31,0,0,0-.44-1.05,2.52,2.52,0,0,0-2.65,0,1.28,1.28,0,0,0-.44,1,3.23,3.23,0,0,0,.13,1,2.05,2.05,0,0,0,.58.79l3.36,3.23a3.7,3.7,0,0,1,.75,1.15A4,4,0,0,1,101.77,16Z" style="fill:#606060"/><path d="M106.27,18.36H105V6.16h2.83a3.19,3.19,0,0,1,2.22.69,2.49,2.49,0,0,1,.76,1.93V12a2.5,2.5,0,0,1-.75,1.94,3.21,3.21,0,0,1-2.23.69h-1.52ZM109.46,12V8.78A1.42,1.42,0,0,0,109,7.68a1.77,1.77,0,0,0-1.24-.39h-1.52v6.19h1.52Q109.46,13.48,109.46,12Z" style="fill:#606060"/><path d="M118.38,16V15h1.31v1a2.46,2.46,0,0,1-.77,1.94,3.38,3.38,0,0,1-2.31.69,3.46,3.46,0,0,1-2.33-.69A2.43,2.43,0,0,1,113.5,16V8.5a2.47,2.47,0,0,1,.77-1.94,3.38,3.38,0,0,1,2.31-.69,3.46,3.46,0,0,1,2.33.69,2.44,2.44,0,0,1,.79,1.94v4.13h-4.88V16q0,1.5,1.78,1.5T118.38,16ZM114.81,8.5v3h3.57v-3q0-1.5-1.78-1.5T114.81,8.5Z" style="fill:#606060"/><path d="M127.76,16V15h1.31v1a2.46,2.46,0,0,1-.77,1.94,3.38,3.38,0,0,1-2.31.69,3.46,3.46,0,0,1-2.33-.69,2.43,2.43,0,0,1-.79-1.94V8.5a2.47,2.47,0,0,1,.77-1.94A3.38,3.38,0,0,1,126,5.87a3.46,3.46,0,0,1,2.33.69,2.44,2.44,0,0,1,.79,1.94v4.13H124.2V16q0,1.5,1.78,1.5T127.76,16ZM124.2,8.5v3h3.57v-3Q127.76,7,126,7T124.2,8.5Z" style="fill:#606060"/><path d="M137.15,16V15h1.31v1a2.46,2.46,0,0,1-.77,1.94,3.38,3.38,0,0,1-2.31.69,3.46,3.46,0,0,1-2.33-.69,2.43,2.43,0,0,1-.79-1.94V8.5A2.47,2.47,0,0,1,133,6.56a3.38,3.38,0,0,1,2.31-.69,3.46,3.46,0,0,1,2.33.69,2.44,2.44,0,0,1,.79,1.94v1.78h-1.31V8.5q0-1.5-1.78-1.5t-1.78,1.5V16q0,1.5,1.78,1.5T137.15,16Z" style="fill:#606060"/><path d="M143.06,18.36h-1.31V6.16h1.31V11.6h3.7V6.16h1.31v12.2h-1.31V12.73h-3.7Z" style="fill:#606060"/><path d="M101.77,16q0,2.63-3.17,2.63T95.42,16v-1.6h1.31v1.67a1.27,1.27,0,0,0,.47,1.05,2.76,2.76,0,0,0,2.78,0,1.24,1.24,0,0,0,.47-1,3.09,3.09,0,0,0-.14-1,2.36,2.36,0,0,0-.57-.82L96.44,11a3.4,3.4,0,0,1-.8-1.14,3.88,3.88,0,0,1-.22-1.4,2.45,2.45,0,0,1,.78-1.94,3.48,3.48,0,0,1,2.36-.69q3,0,3,2.63v1.6h-1.31V8.43a1.31,1.31,0,0,0-.44-1.05,2.52,2.52,0,0,0-2.65,0,1.28,1.28,0,0,0-.44,1,3.23,3.23,0,0,0,.13,1,2.05,2.05,0,0,0,.58.79l3.36,3.23a3.7,3.7,0,0,1,.75,1.15A4,4,0,0,1,101.77,16Z" style="fill:#606060"/><path d="M106.27,18.36H105V6.16h2.83a3.19,3.19,0,0,1,2.22.69,2.49,2.49,0,0,1,.76,1.93V12a2.5,2.5,0,0,1-.75,1.94,3.21,3.21,0,0,1-2.23.69h-1.52ZM109.46,12V8.78A1.42,1.42,0,0,0,109,7.68a1.77,1.77,0,0,0-1.24-.39h-1.52v6.19h1.52Q109.46,13.48,109.46,12Z" style="fill:#606060"/><path d="M118.38,16V15h1.31v1a2.46,2.46,0,0,1-.77,1.94,3.38,3.38,0,0,1-2.31.69,3.46,3.46,0,0,1-2.33-.69A2.43,2.43,0,0,1,113.5,16V8.5a2.47,2.47,0,0,1,.77-1.94,3.38,3.38,0,0,1,2.31-.69,3.46,3.46,0,0,1,2.33.69,2.44,2.44,0,0,1,.79,1.94v4.13h-4.88V16q0,1.5,1.78,1.5T118.38,16ZM114.81,8.5v3h3.57v-3q0-1.5-1.78-1.5T114.81,8.5Z" style="fill:#606060"/><path d="M127.76,16V15h1.31v1a2.46,2.46,0,0,1-.77,1.94,3.38,3.38,0,0,1-2.31.69,3.46,3.46,0,0,1-2.33-.69,2.43,2.43,0,0,1-.79-1.94V8.5a2.47,2.47,0,0,1,.77-1.94A3.38,3.38,0,0,1,126,5.87a3.46,3.46,0,0,1,2.33.69,2.44,2.44,0,0,1,.79,1.94v4.13H124.2V16q0,1.5,1.78,1.5T127.76,16ZM124.2,8.5v3h3.57v-3Q127.76,7,126,7T124.2,8.5Z" style="fill:#606060"/><path d="M137.15,16V15h1.31v1a2.46,2.46,0,0,1-.77,1.94,3.38,3.38,0,0,1-2.31.69,3.46,3.46,0,0,1-2.33-.69,2.43,2.43,0,0,1-.79-1.94V8.5A2.47,2.47,0,0,1,133,6.56a3.38,3.38,0,0,1,2.31-.69,3.46,3.46,0,0,1,2.33.69,2.44,2.44,0,0,1,.79,1.94v1.78h-1.31V8.5q0-1.5-1.78-1.5t-1.78,1.5V16q0,1.5,1.78,1.5T137.15,16Z" style="fill:#606060"/><path d="M143.06,18.36h-1.31V6.16h1.31V11.6h3.7V6.16h1.31v12.2h-1.31V12.73h-3.7Z" style="fill:#606060"/><path d="M101.77,16q0,2.63-3.17,2.63T95.42,16v-1.6h1.31v1.67a1.27,1.27,0,0,0,.47,1.05,2.76,2.76,0,0,0,2.78,0,1.24,1.24,0,0,0,.47-1,3.09,3.09,0,0,0-.14-1,2.36,2.36,0,0,0-.57-.82L96.44,11a3.4,3.4,0,0,1-.8-1.14,3.88,3.88,0,0,1-.22-1.4,2.45,2.45,0,0,1,.78-1.94,3.48,3.48,0,0,1,2.36-.69q3,0,3,2.63v1.6h-1.31V8.43a1.31,1.31,0,0,0-.44-1.05,2.52,2.52,0,0,0-2.65,0,1.28,1.28,0,0,0-.44,1,3.23,3.23,0,0,0,.13,1,2.05,2.05,0,0,0,.58.79l3.36,3.23a3.7,3.7,0,0,1,.75,1.15A4,4,0,0,1,101.77,16Z" style="fill:#606060"/><path d="M106.27,18.36H105V6.16h2.83a3.19,3.19,0,0,1,2.22.69,2.49,2.49,0,0,1,.76,1.93V12a2.5,2.5,0,0,1-.75,1.94,3.21,3.21,0,0,1-2.23.69h-1.52ZM109.46,12V8.78A1.42,1.42,0,0,0,109,7.68a1.77,1.77,0,0,0-1.24-.39h-1.52v6.19h1.52Q109.46,13.48,109.46,12Z" style="fill:#606060"/><path d="M118.38,16V15h1.31v1a2.46,2.46,0,0,1-.77,1.94,3.38,3.38,0,0,1-2.31.69,3.46,3.46,0,0,1-2.33-.69A2.43,2.43,0,0,1,113.5,16V8.5a2.47,2.47,0,0,1,.77-1.94,3.38,3.38,0,0,1,2.31-.69,3.46,3.46,0,0,1,2.33.69,2.44,2.44,0,0,1,.79,1.94v4.13h-4.88V16q0,1.5,1.78,1.5T118.38,16ZM114.81,8.5v3h3.57v-3q0-1.5-1.78-1.5T114.81,8.5Z" style="fill:#606060"/><path d="M127.76,16V15h1.31v1a2.46,2.46,0,0,1-.77,1.94,3.38,3.38,0,0,1-2.31.69,3.46,3.46,0,0,1-2.33-.69,2.43,2.43,0,0,1-.79-1.94V8.5a2.47,2.47,0,0,1,.77-1.94A3.38,3.38,0,0,1,126,5.87a3.46,3.46,0,0,1,2.33.69,2.44,2.44,0,0,1,.79,1.94v4.13H124.2V16q0,1.5,1.78,1.5T127.76,16ZM124.2,8.5v3h3.57v-3Q127.76,7,126,7T124.2,8.5Z" style="fill:#606060"/><path d="M137.15,16V15h1.31v1a2.46,2.46,0,0,1-.77,1.94,3.38,3.38,0,0,1-2.31.69,3.46,3.46,0,0,1-2.33-.69,2.43,2.43,0,0,1-.79-1.94V8.5A2.47,2.47,0,0,1,133,6.56a3.38,3.38,0,0,1,2.31-.69,3.46,3.46,0,0,1,2.33.69,2.44,2.44,0,0,1,.79,1.94v1.78h-1.31V8.5q0-1.5-1.78-1.5t-1.78,1.5V16q0,1.5,1.78,1.5T137.15,16Z" style="fill:#606060"/><path d="M143.06,18.36h-1.31V6.16h1.31V11.6h3.7V6.16h1.31v12.2h-1.31V12.73h-3.7Z" style="fill:#606060"/><path d="M154.65,6.16h3.75v10a2.35,2.35,0,0,1-.68,1.82,2.67,2.67,0,0,1-1.88.62A2.6,2.6,0,0,1,154,18a2.38,2.38,0,0,1-.66-1.82V15h1.31v1.3a1.08,1.08,0,0,0,1.2,1.24,1.09,1.09,0,0,0,1.24-1.24v-9h-2.44Z" style="fill:#606060"/><path d="M161.78,16V6.16h1.31V16a1.75,1.75,0,0,0,.31,1.11,1.37,1.37,0,0,0,1.14.39,2.2,2.2,0,0,0,1.52-.64,1.76,1.76,0,0,0,.69-1.24V6.16h1.31v12.2h-.56l-.49-1.2A3.24,3.24,0,0,1,166,18.23a2.63,2.63,0,0,1-1.42.4Q161.78,18.64,161.78,16Z" style="fill:#606060"/><path d="M173.14,18.36h-1.31V6.16h1.31Z" style="fill:#606060"/><path d="M181.49,16V15h1.31v1A2.46,2.46,0,0,1,182,18a3.38,3.38,0,0,1-2.31.69A3.46,3.46,0,0,1,177.4,18a2.43,2.43,0,0,1-.79-1.94V8.5a2.47,2.47,0,0,1,.77-1.94,3.38,3.38,0,0,1,2.31-.69,3.46,3.46,0,0,1,2.33.69,2.44,2.44,0,0,1,.79,1.94v1.78h-1.31V8.5q0-1.5-1.78-1.5t-1.78,1.5V16q0,1.5,1.78,1.5T181.49,16Z" style="fill:#606060"/><path d="M190.69,16V15H192v1a2.46,2.46,0,0,1-.77,1.94,3.38,3.38,0,0,1-2.31.69,3.46,3.46,0,0,1-2.33-.69,2.43,2.43,0,0,1-.79-1.94V8.5a2.47,2.47,0,0,1,.77-1.94,3.38,3.38,0,0,1,2.31-.69,3.46,3.46,0,0,1,2.33.69A2.44,2.44,0,0,1,192,8.5v4.13h-4.88V16q0,1.5,1.78,1.5T190.69,16ZM187.12,8.5v3h3.57v-3q0-1.5-1.78-1.5T187.12,8.5Z" style="fill:#606060"/><path d="M154.65,6.16h3.75v10a2.35,2.35,0,0,1-.68,1.82,2.67,2.67,0,0,1-1.88.62A2.6,2.6,0,0,1,154,18a2.38,2.38,0,0,1-.66-1.82V15h1.31v1.3a1.08,1.08,0,0,0,1.2,1.24,1.09,1.09,0,0,0,1.24-1.24v-9h-2.44Z" style="fill:#606060"/><path d="M161.78,16V6.16h1.31V16a1.75,1.75,0,0,0,.31,1.11,1.37,1.37,0,0,0,1.14.39,2.2,2.2,0,0,0,1.52-.64,1.76,1.76,0,0,0,.69-1.24V6.16h1.31v12.2h-.56l-.49-1.2A3.24,3.24,0,0,1,166,18.23a2.63,2.63,0,0,1-1.42.4Q161.78,18.64,161.78,16Z" style="fill:#606060"/><path d="M173.14,18.36h-1.31V6.16h1.31Z" style="fill:#606060"/><path d="M181.49,16V15h1.31v1A2.46,2.46,0,0,1,182,18a3.38,3.38,0,0,1-2.31.69A3.46,3.46,0,0,1,177.4,18a2.43,2.43,0,0,1-.79-1.94V8.5a2.47,2.47,0,0,1,.77-1.94,3.38,3.38,0,0,1,2.31-.69,3.46,3.46,0,0,1,2.33.69,2.44,2.44,0,0,1,.79,1.94v1.78h-1.31V8.5q0-1.5-1.78-1.5t-1.78,1.5V16q0,1.5,1.78,1.5T181.49,16Z" style="fill:#606060"/><path d="M190.69,16V15H192v1a2.46,2.46,0,0,1-.77,1.94,3.38,3.38,0,0,1-2.31.69,3.46,3.46,0,0,1-2.33-.69,2.43,2.43,0,0,1-.79-1.94V8.5a2.47,2.47,0,0,1,.77-1.94,3.38,3.38,0,0,1,2.31-.69,3.46,3.46,0,0,1,2.33.69A2.44,2.44,0,0,1,192,8.5v4.13h-4.88V16q0,1.5,1.78,1.5T190.69,16ZM187.12,8.5v3h3.57v-3q0-1.5-1.78-1.5T187.12,8.5Z" style="fill:#606060"/><path d="M154.65,6.16h3.75v10a2.35,2.35,0,0,1-.68,1.82,2.67,2.67,0,0,1-1.88.62A2.6,2.6,0,0,1,154,18a2.38,2.38,0,0,1-.66-1.82V15h1.31v1.3a1.08,1.08,0,0,0,1.2,1.24,1.09,1.09,0,0,0,1.24-1.24v-9h-2.44Z" style="fill:#606060"/><path d="M161.78,16V6.16h1.31V16a1.75,1.75,0,0,0,.31,1.11,1.37,1.37,0,0,0,1.14.39,2.2,2.2,0,0,0,1.52-.64,1.76,1.76,0,0,0,.69-1.24V6.16h1.31v12.2h-.56l-.49-1.2A3.24,3.24,0,0,1,166,18.23a2.63,2.63,0,0,1-1.42.4Q161.78,18.64,161.78,16Z" style="fill:#606060"/><path d="M173.14,18.36h-1.31V6.16h1.31Z" style="fill:#606060"/><path d="M181.49,16V15h1.31v1A2.46,2.46,0,0,1,182,18a3.38,3.38,0,0,1-2.31.69A3.46,3.46,0,0,1,177.4,18a2.43,2.43,0,0,1-.79-1.94V8.5a2.47,2.47,0,0,1,.77-1.94,3.38,3.38,0,0,1,2.31-.69,3.46,3.46,0,0,1,2.33.69,2.44,2.44,0,0,1,.79,1.94v1.78h-1.31V8.5q0-1.5-1.78-1.5t-1.78,1.5V16q0,1.5,1.78,1.5T181.49,16Z" style="fill:#606060"/><path d="M190.69,16V15H192v1a2.46,2.46,0,0,1-.77,1.94,3.38,3.38,0,0,1-2.31.69,3.46,3.46,0,0,1-2.33-.69,2.43,2.43,0,0,1-.79-1.94V8.5a2.47,2.47,0,0,1,.77-1.94,3.38,3.38,0,0,1,2.31-.69,3.46,3.46,0,0,1,2.33.69A2.44,2.44,0,0,1,192,8.5v4.13h-4.88V16q0,1.5,1.78,1.5T190.69,16ZM187.12,8.5v3h3.57v-3q0-1.5-1.78-1.5T187.12,8.5Z" style="fill:#606060"/><path d="M101.77,16q0,2.63-3.17,2.63T95.42,16v-1.6h1.31v1.67a1.27,1.27,0,0,0,.47,1.05,2.76,2.76,0,0,0,2.78,0,1.24,1.24,0,0,0,.47-1,3.09,3.09,0,0,0-.14-1,2.36,2.36,0,0,0-.57-.82L96.44,11a3.4,3.4,0,0,1-.8-1.14,3.88,3.88,0,0,1-.22-1.4,2.45,2.45,0,0,1,.78-1.94,3.48,3.48,0,0,1,2.36-.69q3,0,3,2.63v1.6h-1.31V8.43a1.31,1.31,0,0,0-.44-1.05,2.52,2.52,0,0,0-2.65,0,1.28,1.28,0,0,0-.44,1,3.23,3.23,0,0,0,.13,1,2.05,2.05,0,0,0,.58.79l3.36,3.23a3.7,3.7,0,0,1,.75,1.15A4,4,0,0,1,101.77,16Z" style="fill:#606060"/><path d="M106.27,18.36H105V6.16h2.83a3.19,3.19,0,0,1,2.22.69,2.49,2.49,0,0,1,.76,1.93V12a2.5,2.5,0,0,1-.75,1.94,3.21,3.21,0,0,1-2.23.69h-1.52ZM109.46,12V8.78A1.42,1.42,0,0,0,109,7.68a1.77,1.77,0,0,0-1.24-.39h-1.52v6.19h1.52Q109.46,13.48,109.46,12Z" style="fill:#606060"/><path d="M118.38,16V15h1.31v1a2.46,2.46,0,0,1-.77,1.94,3.38,3.38,0,0,1-2.31.69,3.46,3.46,0,0,1-2.33-.69A2.43,2.43,0,0,1,113.5,16V8.5a2.47,2.47,0,0,1,.77-1.94,3.38,3.38,0,0,1,2.31-.69,3.46,3.46,0,0,1,2.33.69,2.44,2.44,0,0,1,.79,1.94v4.13h-4.88V16q0,1.5,1.78,1.5T118.38,16ZM114.81,8.5v3h3.57v-3q0-1.5-1.78-1.5T114.81,8.5Z" style="fill:#606060"/><path d="M127.76,16V15h1.31v1a2.46,2.46,0,0,1-.77,1.94,3.38,3.38,0,0,1-2.31.69,3.46,3.46,0,0,1-2.33-.69,2.43,2.43,0,0,1-.79-1.94V8.5a2.47,2.47,0,0,1,.77-1.94A3.38,3.38,0,0,1,126,5.87a3.46,3.46,0,0,1,2.33.69,2.44,2.44,0,0,1,.79,1.94v4.13H124.2V16q0,1.5,1.78,1.5T127.76,16ZM124.2,8.5v3h3.57v-3Q127.76,7,126,7T124.2,8.5Z" style="fill:#606060"/><path d="M137.15,16V15h1.31v1a2.46,2.46,0,0,1-.77,1.94,3.38,3.38,0,0,1-2.31.69,3.46,3.46,0,0,1-2.33-.69,2.43,2.43,0,0,1-.79-1.94V8.5A2.47,2.47,0,0,1,133,6.56a3.38,3.38,0,0,1,2.31-.69,3.46,3.46,0,0,1,2.33.69,2.44,2.44,0,0,1,.79,1.94v1.78h-1.31V8.5q0-1.5-1.78-1.5t-1.78,1.5V16q0,1.5,1.78,1.5T137.15,16Z" style="fill:#606060"/><path d="M143.06,18.36h-1.31V6.16h1.31V11.6h3.7V6.16h1.31v12.2h-1.31V12.73h-3.7Z" style="fill:#606060"/><path d="M101.77,16q0,2.63-3.17,2.63T95.42,16v-1.6h1.31v1.67a1.27,1.27,0,0,0,.47,1.05,2.76,2.76,0,0,0,2.78,0,1.24,1.24,0,0,0,.47-1,3.09,3.09,0,0,0-.14-1,2.36,2.36,0,0,0-.57-.82L96.44,11a3.4,3.4,0,0,1-.8-1.14,3.88,3.88,0,0,1-.22-1.4,2.45,2.45,0,0,1,.78-1.94,3.48,3.48,0,0,1,2.36-.69q3,0,3,2.63v1.6h-1.31V8.43a1.31,1.31,0,0,0-.44-1.05,2.52,2.52,0,0,0-2.65,0,1.28,1.28,0,0,0-.44,1,3.23,3.23,0,0,0,.13,1,2.05,2.05,0,0,0,.58.79l3.36,3.23a3.7,3.7,0,0,1,.75,1.15A4,4,0,0,1,101.77,16Z" style="fill:#606060"/><path d="M106.27,18.36H105V6.16h2.83a3.19,3.19,0,0,1,2.22.69,2.49,2.49,0,0,1,.76,1.93V12a2.5,2.5,0,0,1-.75,1.94,3.21,3.21,0,0,1-2.23.69h-1.52ZM109.46,12V8.78A1.42,1.42,0,0,0,109,7.68a1.77,1.77,0,0,0-1.24-.39h-1.52v6.19h1.52Q109.46,13.48,109.46,12Z" style="fill:#606060"/><path d="M118.38,16V15h1.31v1a2.46,2.46,0,0,1-.77,1.94,3.38,3.38,0,0,1-2.31.69,3.46,3.46,0,0,1-2.33-.69A2.43,2.43,0,0,1,113.5,16V8.5a2.47,2.47,0,0,1,.77-1.94,3.38,3.38,0,0,1,2.31-.69,3.46,3.46,0,0,1,2.33.69,2.44,2.44,0,0,1,.79,1.94v4.13h-4.88V16q0,1.5,1.78,1.5T118.38,16ZM114.81,8.5v3h3.57v-3q0-1.5-1.78-1.5T114.81,8.5Z" style="fill:#606060"/><path d="M127.76,16V15h1.31v1a2.46,2.46,0,0,1-.77,1.94,3.38,3.38,0,0,1-2.31.69,3.46,3.46,0,0,1-2.33-.69,2.43,2.43,0,0,1-.79-1.94V8.5a2.47,2.47,0,0,1,.77-1.94A3.38,3.38,0,0,1,126,5.87a3.46,3.46,0,0,1,2.33.69,2.44,2.44,0,0,1,.79,1.94v4.13H124.2V16q0,1.5,1.78,1.5T127.76,16ZM124.2,8.5v3h3.57v-3Q127.76,7,126,7T124.2,8.5Z" style="fill:#606060"/><path d="M137.15,16V15h1.31v1a2.46,2.46,0,0,1-.77,1.94,3.38,3.38,0,0,1-2.31.69,3.46,3.46,0,0,1-2.33-.69,2.43,2.43,0,0,1-.79-1.94V8.5A2.47,2.47,0,0,1,133,6.56a3.38,3.38,0,0,1,2.31-.69,3.46,3.46,0,0,1,2.33.69,2.44,2.44,0,0,1,.79,1.94v1.78h-1.31V8.5q0-1.5-1.78-1.5t-1.78,1.5V16q0,1.5,1.78,1.5T137.15,16Z" style="fill:#606060"/><path d="M143.06,18.36h-1.31V6.16h1.31V11.6h3.7V6.16h1.31v12.2h-1.31V12.73h-3.7Z" style="fill:#606060"/><path d="M101.77,16q0,2.63-3.17,2.63T95.42,16v-1.6h1.31v1.67a1.27,1.27,0,0,0,.47,1.05,2.76,2.76,0,0,0,2.78,0,1.24,1.24,0,0,0,.47-1,3.09,3.09,0,0,0-.14-1,2.36,2.36,0,0,0-.57-.82L96.44,11a3.4,3.4,0,0,1-.8-1.14,3.88,3.88,0,0,1-.22-1.4,2.45,2.45,0,0,1,.78-1.94,3.48,3.48,0,0,1,2.36-.69q3,0,3,2.63v1.6h-1.31V8.43a1.31,1.31,0,0,0-.44-1.05,2.52,2.52,0,0,0-2.65,0,1.28,1.28,0,0,0-.44,1,3.23,3.23,0,0,0,.13,1,2.05,2.05,0,0,0,.58.79l3.36,3.23a3.7,3.7,0,0,1,.75,1.15A4,4,0,0,1,101.77,16Z" style="fill:#606060"/><path d="M106.27,18.36H105V6.16h2.83a3.19,3.19,0,0,1,2.22.69,2.49,2.49,0,0,1,.76,1.93V12a2.5,2.5,0,0,1-.75,1.94,3.21,3.21,0,0,1-2.23.69h-1.52ZM109.46,12V8.78A1.42,1.42,0,0,0,109,7.68a1.77,1.77,0,0,0-1.24-.39h-1.52v6.19h1.52Q109.46,13.48,109.46,12Z" style="fill:#606060"/><path d="M118.38,16V15h1.31v1a2.46,2.46,0,0,1-.77,1.94,3.38,3.38,0,0,1-2.31.69,3.46,3.46,0,0,1-2.33-.69A2.43,2.43,0,0,1,113.5,16V8.5a2.47,2.47,0,0,1,.77-1.94,3.38,3.38,0,0,1,2.31-.69,3.46,3.46,0,0,1,2.33.69,2.44,2.44,0,0,1,.79,1.94v4.13h-4.88V16q0,1.5,1.78,1.5T118.38,16ZM114.81,8.5v3h3.57v-3q0-1.5-1.78-1.5T114.81,8.5Z" style="fill:#606060"/><path d="M127.76,16V15h1.31v1a2.46,2.46,0,0,1-.77,1.94,3.38,3.38,0,0,1-2.31.69,3.46,3.46,0,0,1-2.33-.69,2.43,2.43,0,0,1-.79-1.94V8.5a2.47,2.47,0,0,1,.77-1.94A3.38,3.38,0,0,1,126,5.87a3.46,3.46,0,0,1,2.33.69,2.44,2.44,0,0,1,.79,1.94v4.13H124.2V16q0,1.5,1.78,1.5T127.76,16ZM124.2,8.5v3h3.57v-3Q127.76,7,126,7T124.2,8.5Z" style="fill:#606060"/><path d="M137.15,16V15h1.31v1a2.46,2.46,0,0,1-.77,1.94,3.38,3.38,0,0,1-2.31.69,3.46,3.46,0,0,1-2.33-.69,2.43,2.43,0,0,1-.79-1.94V8.5A2.47,2.47,0,0,1,133,6.56a3.38,3.38,0,0,1,2.31-.69,3.46,3.46,0,0,1,2.33.69,2.44,2.44,0,0,1,.79,1.94v1.78h-1.31V8.5q0-1.5-1.78-1.5t-1.78,1.5V16q0,1.5,1.78,1.5T137.15,16Z" style="fill:#606060"/><path d="M143.06,18.36h-1.31V6.16h1.31V11.6h3.7V6.16h1.31v12.2h-1.31V12.73h-3.7Z" style="fill:#606060"/><path d="M154.65,6.16h3.75v10a2.35,2.35,0,0,1-.68,1.82,2.67,2.67,0,0,1-1.88.62A2.6,2.6,0,0,1,154,18a2.38,2.38,0,0,1-.66-1.82V15h1.31v1.3a1.08,1.08,0,0,0,1.2,1.24,1.09,1.09,0,0,0,1.24-1.24v-9h-2.44Z" style="fill:#606060"/><path d="M161.78,16V6.16h1.31V16a1.75,1.75,0,0,0,.31,1.11,1.37,1.37,0,0,0,1.14.39,2.2,2.2,0,0,0,1.52-.64,1.76,1.76,0,0,0,.69-1.24V6.16h1.31v12.2h-.56l-.49-1.2A3.24,3.24,0,0,1,166,18.23a2.63,2.63,0,0,1-1.42.4Q161.78,18.64,161.78,16Z" style="fill:#606060"/><path d="M173.14,18.36h-1.31V6.16h1.31Z" style="fill:#606060"/><path d="M181.49,16V15h1.31v1A2.46,2.46,0,0,1,182,18a3.38,3.38,0,0,1-2.31.69A3.46,3.46,0,0,1,177.4,18a2.43,2.43,0,0,1-.79-1.94V8.5a2.47,2.47,0,0,1,.77-1.94,3.38,3.38,0,0,1,2.31-.69,3.46,3.46,0,0,1,2.33.69,2.44,2.44,0,0,1,.79,1.94v1.78h-1.31V8.5q0-1.5-1.78-1.5t-1.78,1.5V16q0,1.5,1.78,1.5T181.49,16Z" style="fill:#606060"/><path d="M190.69,16V15H192v1a2.46,2.46,0,0,1-.77,1.94,3.38,3.38,0,0,1-2.31.69,3.46,3.46,0,0,1-2.33-.69,2.43,2.43,0,0,1-.79-1.94V8.5a2.47,2.47,0,0,1,.77-1.94,3.38,3.38,0,0,1,2.31-.69,3.46,3.46,0,0,1,2.33.69A2.44,2.44,0,0,1,192,8.5v4.13h-4.88V16q0,1.5,1.78,1.5T190.69,16ZM187.12,8.5v3h3.57v-3q0-1.5-1.78-1.5T187.12,8.5Z" style="fill:#606060"/><path d="M154.65,6.16h3.75v10a2.35,2.35,0,0,1-.68,1.82,2.67,2.67,0,0,1-1.88.62A2.6,2.6,0,0,1,154,18a2.38,2.38,0,0,1-.66-1.82V15h1.31v1.3a1.08,1.08,0,0,0,1.2,1.24,1.09,1.09,0,0,0,1.24-1.24v-9h-2.44Z" style="fill:#606060"/><path d="M161.78,16V6.16h1.31V16a1.75,1.75,0,0,0,.31,1.11,1.37,1.37,0,0,0,1.14.39,2.2,2.2,0,0,0,1.52-.64,1.76,1.76,0,0,0,.69-1.24V6.16h1.31v12.2h-.56l-.49-1.2A3.24,3.24,0,0,1,166,18.23a2.63,2.63,0,0,1-1.42.4Q161.78,18.64,161.78,16Z" style="fill:#606060"/><path d="M173.14,18.36h-1.31V6.16h1.31Z" style="fill:#606060"/><path d="M181.49,16V15h1.31v1A2.46,2.46,0,0,1,182,18a3.38,3.38,0,0,1-2.31.69A3.46,3.46,0,0,1,177.4,18a2.43,2.43,0,0,1-.79-1.94V8.5a2.47,2.47,0,0,1,.77-1.94,3.38,3.38,0,0,1,2.31-.69,3.46,3.46,0,0,1,2.33.69,2.44,2.44,0,0,1,.79,1.94v1.78h-1.31V8.5q0-1.5-1.78-1.5t-1.78,1.5V16q0,1.5,1.78,1.5T181.49,16Z" style="fill:#606060"/><path d="M190.69,16V15H192v1a2.46,2.46,0,0,1-.77,1.94,3.38,3.38,0,0,1-2.31.69,3.46,3.46,0,0,1-2.33-.69,2.43,2.43,0,0,1-.79-1.94V8.5a2.47,2.47,0,0,1,.77-1.94,3.38,3.38,0,0,1,2.31-.69,3.46,3.46,0,0,1,2.33.69A2.44,2.44,0,0,1,192,8.5v4.13h-4.88V16q0,1.5,1.78,1.5T190.69,16ZM187.12,8.5v3h3.57v-3q0-1.5-1.78-1.5T187.12,8.5Z" style="fill:#606060"/><path d="M154.65,6.16h3.75v10a2.35,2.35,0,0,1-.68,1.82,2.67,2.67,0,0,1-1.88.62A2.6,2.6,0,0,1,154,18a2.38,2.38,0,0,1-.66-1.82V15h1.31v1.3a1.08,1.08,0,0,0,1.2,1.24,1.09,1.09,0,0,0,1.24-1.24v-9h-2.44Z" style="fill:#606060"/><path d="M161.78,16V6.16h1.31V16a1.75,1.75,0,0,0,.31,1.11,1.37,1.37,0,0,0,1.14.39,2.2,2.2,0,0,0,1.52-.64,1.76,1.76,0,0,0,.69-1.24V6.16h1.31v12.2h-.56l-.49-1.2A3.24,3.24,0,0,1,166,18.23a2.63,2.63,0,0,1-1.42.4Q161.78,18.64,161.78,16Z" style="fill:#606060"/><path d="M173.14,18.36h-1.31V6.16h1.31Z" style="fill:#606060"/><path d="M181.49,16V15h1.31v1A2.46,2.46,0,0,1,182,18a3.38,3.38,0,0,1-2.31.69A3.46,3.46,0,0,1,177.4,18a2.43,2.43,0,0,1-.79-1.94V8.5a2.47,2.47,0,0,1,.77-1.94,3.38,3.38,0,0,1,2.31-.69,3.46,3.46,0,0,1,2.33.69,2.44,2.44,0,0,1,.79,1.94v1.78h-1.31V8.5q0-1.5-1.78-1.5t-1.78,1.5V16q0,1.5,1.78,1.5T181.49,16Z" style="fill:#606060"/><path d="M190.69,16V15H192v1a2.46,2.46,0,0,1-.77,1.94,3.38,3.38,0,0,1-2.31.69,3.46,3.46,0,0,1-2.33-.69,2.43,2.43,0,0,1-.79-1.94V8.5a2.47,2.47,0,0,1,.77-1.94,3.38,3.38,0,0,1,2.31-.69,3.46,3.46,0,0,1,2.33.69A2.44,2.44,0,0,1,192,8.5v4.13h-4.88V16q0,1.5,1.78,1.5T190.69,16ZM187.12,8.5v3h3.57v-3q0-1.5-1.78-1.5T187.12,8.5Z" style="fill:#606060"/><path d="M101.77,16q0,2.63-3.17,2.63T95.42,16v-1.6h1.31v1.67a1.27,1.27,0,0,0,.47,1.05,2.76,2.76,0,0,0,2.78,0,1.24,1.24,0,0,0,.47-1,3.09,3.09,0,0,0-.14-1,2.36,2.36,0,0,0-.57-.82L96.44,11a3.4,3.4,0,0,1-.8-1.14,3.88,3.88,0,0,1-.22-1.4,2.45,2.45,0,0,1,.78-1.94,3.48,3.48,0,0,1,2.36-.69q3,0,3,2.63v1.6h-1.31V8.43a1.31,1.31,0,0,0-.44-1.05,2.52,2.52,0,0,0-2.65,0,1.28,1.28,0,0,0-.44,1,3.23,3.23,0,0,0,.13,1,2.05,2.05,0,0,0,.58.79l3.36,3.23a3.7,3.7,0,0,1,.75,1.15A4,4,0,0,1,101.77,16Z" style="fill:#606060"/><path d="M106.27,18.36H105V6.16h2.83a3.19,3.19,0,0,1,2.22.69,2.49,2.49,0,0,1,.76,1.93V12a2.5,2.5,0,0,1-.75,1.94,3.21,3.21,0,0,1-2.23.69h-1.52ZM109.46,12V8.78A1.42,1.42,0,0,0,109,7.68a1.77,1.77,0,0,0-1.24-.39h-1.52v6.19h1.52Q109.46,13.48,109.46,12Z" style="fill:#606060"/><path d="M118.38,16V15h1.31v1a2.46,2.46,0,0,1-.77,1.94,3.38,3.38,0,0,1-2.31.69,3.46,3.46,0,0,1-2.33-.69A2.43,2.43,0,0,1,113.5,16V8.5a2.47,2.47,0,0,1,.77-1.94,3.38,3.38,0,0,1,2.31-.69,3.46,3.46,0,0,1,2.33.69,2.44,2.44,0,0,1,.79,1.94v4.13h-4.88V16q0,1.5,1.78,1.5T118.38,16ZM114.81,8.5v3h3.57v-3q0-1.5-1.78-1.5T114.81,8.5Z" style="fill:#606060"/><path d="M127.76,16V15h1.31v1a2.46,2.46,0,0,1-.77,1.94,3.38,3.38,0,0,1-2.31.69,3.46,3.46,0,0,1-2.33-.69,2.43,2.43,0,0,1-.79-1.94V8.5a2.47,2.47,0,0,1,.77-1.94A3.38,3.38,0,0,1,126,5.87a3.46,3.46,0,0,1,2.33.69,2.44,2.44,0,0,1,.79,1.94v4.13H124.2V16q0,1.5,1.78,1.5T127.76,16ZM124.2,8.5v3h3.57v-3Q127.76,7,126,7T124.2,8.5Z" style="fill:#606060"/><path d="M137.15,16V15h1.31v1a2.46,2.46,0,0,1-.77,1.94,3.38,3.38,0,0,1-2.31.69,3.46,3.46,0,0,1-2.33-.69,2.43,2.43,0,0,1-.79-1.94V8.5A2.47,2.47,0,0,1,133,6.56a3.38,3.38,0,0,1,2.31-.69,3.46,3.46,0,0,1,2.33.69,2.44,2.44,0,0,1,.79,1.94v1.78h-1.31V8.5q0-1.5-1.78-1.5t-1.78,1.5V16q0,1.5,1.78,1.5T137.15,16Z" style="fill:#606060"/><path d="M143.06,18.36h-1.31V6.16h1.31V11.6h3.7V6.16h1.31v12.2h-1.31V12.73h-3.7Z" style="fill:#606060"/><path d="M101.77,16q0,2.63-3.17,2.63T95.42,16v-1.6h1.31v1.67a1.27,1.27,0,0,0,.47,1.05,2.76,2.76,0,0,0,2.78,0,1.24,1.24,0,0,0,.47-1,3.09,3.09,0,0,0-.14-1,2.36,2.36,0,0,0-.57-.82L96.44,11a3.4,3.4,0,0,1-.8-1.14,3.88,3.88,0,0,1-.22-1.4,2.45,2.45,0,0,1,.78-1.94,3.48,3.48,0,0,1,2.36-.69q3,0,3,2.63v1.6h-1.31V8.43a1.31,1.31,0,0,0-.44-1.05,2.52,2.52,0,0,0-2.65,0,1.28,1.28,0,0,0-.44,1,3.23,3.23,0,0,0,.13,1,2.05,2.05,0,0,0,.58.79l3.36,3.23a3.7,3.7,0,0,1,.75,1.15A4,4,0,0,1,101.77,16Z" style="fill:#606060"/><path d="M106.27,18.36H105V6.16h2.83a3.19,3.19,0,0,1,2.22.69,2.49,2.49,0,0,1,.76,1.93V12a2.5,2.5,0,0,1-.75,1.94,3.21,3.21,0,0,1-2.23.69h-1.52ZM109.46,12V8.78A1.42,1.42,0,0,0,109,7.68a1.77,1.77,0,0,0-1.24-.39h-1.52v6.19h1.52Q109.46,13.48,109.46,12Z" style="fill:#606060"/><path d="M118.38,16V15h1.31v1a2.46,2.46,0,0,1-.77,1.94,3.38,3.38,0,0,1-2.31.69,3.46,3.46,0,0,1-2.33-.69A2.43,2.43,0,0,1,113.5,16V8.5a2.47,2.47,0,0,1,.77-1.94,3.38,3.38,0,0,1,2.31-.69,3.46,3.46,0,0,1,2.33.69,2.44,2.44,0,0,1,.79,1.94v4.13h-4.88V16q0,1.5,1.78,1.5T118.38,16ZM114.81,8.5v3h3.57v-3q0-1.5-1.78-1.5T114.81,8.5Z" style="fill:#606060"/><path d="M127.76,16V15h1.31v1a2.46,2.46,0,0,1-.77,1.94,3.38,3.38,0,0,1-2.31.69,3.46,3.46,0,0,1-2.33-.69,2.43,2.43,0,0,1-.79-1.94V8.5a2.47,2.47,0,0,1,.77-1.94A3.38,3.38,0,0,1,126,5.87a3.46,3.46,0,0,1,2.33.69,2.44,2.44,0,0,1,.79,1.94v4.13H124.2V16q0,1.5,1.78,1.5T127.76,16ZM124.2,8.5v3h3.57v-3Q127.76,7,126,7T124.2,8.5Z" style="fill:#606060"/><path d="M137.15,16V15h1.31v1a2.46,2.46,0,0,1-.77,1.94,3.38,3.38,0,0,1-2.31.69,3.46,3.46,0,0,1-2.33-.69,2.43,2.43,0,0,1-.79-1.94V8.5A2.47,2.47,0,0,1,133,6.56a3.38,3.38,0,0,1,2.31-.69,3.46,3.46,0,0,1,2.33.69,2.44,2.44,0,0,1,.79,1.94v1.78h-1.31V8.5q0-1.5-1.78-1.5t-1.78,1.5V16q0,1.5,1.78,1.5T137.15,16Z" style="fill:#606060"/><path d="M143.06,18.36h-1.31V6.16h1.31V11.6h3.7V6.16h1.31v12.2h-1.31V12.73h-3.7Z" style="fill:#606060"/><path d="M101.77,16q0,2.63-3.17,2.63T95.42,16v-1.6h1.31v1.67a1.27,1.27,0,0,0,.47,1.05,2.76,2.76,0,0,0,2.78,0,1.24,1.24,0,0,0,.47-1,3.09,3.09,0,0,0-.14-1,2.36,2.36,0,0,0-.57-.82L96.44,11a3.4,3.4,0,0,1-.8-1.14,3.88,3.88,0,0,1-.22-1.4,2.45,2.45,0,0,1,.78-1.94,3.48,3.48,0,0,1,2.36-.69q3,0,3,2.63v1.6h-1.31V8.43a1.31,1.31,0,0,0-.44-1.05,2.52,2.52,0,0,0-2.65,0,1.28,1.28,0,0,0-.44,1,3.23,3.23,0,0,0,.13,1,2.05,2.05,0,0,0,.58.79l3.36,3.23a3.7,3.7,0,0,1,.75,1.15A4,4,0,0,1,101.77,16Z" style="fill:#606060"/><path d="M106.27,18.36H105V6.16h2.83a3.19,3.19,0,0,1,2.22.69,2.49,2.49,0,0,1,.76,1.93V12a2.5,2.5,0,0,1-.75,1.94,3.21,3.21,0,0,1-2.23.69h-1.52ZM109.46,12V8.78A1.42,1.42,0,0,0,109,7.68a1.77,1.77,0,0,0-1.24-.39h-1.52v6.19h1.52Q109.46,13.48,109.46,12Z" style="fill:#606060"/><path d="M118.38,16V15h1.31v1a2.46,2.46,0,0,1-.77,1.94,3.38,3.38,0,0,1-2.31.69,3.46,3.46,0,0,1-2.33-.69A2.43,2.43,0,0,1,113.5,16V8.5a2.47,2.47,0,0,1,.77-1.94,3.38,3.38,0,0,1,2.31-.69,3.46,3.46,0,0,1,2.33.69,2.44,2.44,0,0,1,.79,1.94v4.13h-4.88V16q0,1.5,1.78,1.5T118.38,16ZM114.81,8.5v3h3.57v-3q0-1.5-1.78-1.5T114.81,8.5Z" style="fill:#606060"/><path d="M127.76,16V15h1.31v1a2.46,2.46,0,0,1-.77,1.94,3.38,3.38,0,0,1-2.31.69,3.46,3.46,0,0,1-2.33-.69,2.43,2.43,0,0,1-.79-1.94V8.5a2.47,2.47,0,0,1,.77-1.94A3.38,3.38,0,0,1,126,5.87a3.46,3.46,0,0,1,2.33.69,2.44,2.44,0,0,1,.79,1.94v4.13H124.2V16q0,1.5,1.78,1.5T127.76,16ZM124.2,8.5v3h3.57v-3Q127.76,7,126,7T124.2,8.5Z" style="fill:#606060"/><path d="M137.15,16V15h1.31v1a2.46,2.46,0,0,1-.77,1.94,3.38,3.38,0,0,1-2.31.69,3.46,3.46,0,0,1-2.33-.69,2.43,2.43,0,0,1-.79-1.94V8.5A2.47,2.47,0,0,1,133,6.56a3.38,3.38,0,0,1,2.31-.69,3.46,3.46,0,0,1,2.33.69,2.44,2.44,0,0,1,.79,1.94v1.78h-1.31V8.5q0-1.5-1.78-1.5t-1.78,1.5V16q0,1.5,1.78,1.5T137.15,16Z" style="fill:#606060"/><path d="M143.06,18.36h-1.31V6.16h1.31V11.6h3.7V6.16h1.31v12.2h-1.31V12.73h-3.7Z" style="fill:#606060"/><path d="M154.65,6.16h3.75v10a2.35,2.35,0,0,1-.68,1.82,2.67,2.67,0,0,1-1.88.62A2.6,2.6,0,0,1,154,18a2.38,2.38,0,0,1-.66-1.82V15h1.31v1.3a1.08,1.08,0,0,0,1.2,1.24,1.09,1.09,0,0,0,1.24-1.24v-9h-2.44Z" style="fill:#606060"/><path d="M161.78,16V6.16h1.31V16a1.75,1.75,0,0,0,.31,1.11,1.37,1.37,0,0,0,1.14.39,2.2,2.2,0,0,0,1.52-.64,1.76,1.76,0,0,0,.69-1.24V6.16h1.31v12.2h-.56l-.49-1.2A3.24,3.24,0,0,1,166,18.23a2.63,2.63,0,0,1-1.42.4Q161.78,18.64,161.78,16Z" style="fill:#606060"/><path d="M173.14,18.36h-1.31V6.16h1.31Z" style="fill:#606060"/><path d="M181.49,16V15h1.31v1A2.46,2.46,0,0,1,182,18a3.38,3.38,0,0,1-2.31.69A3.46,3.46,0,0,1,177.4,18a2.43,2.43,0,0,1-.79-1.94V8.5a2.47,2.47,0,0,1,.77-1.94,3.38,3.38,0,0,1,2.31-.69,3.46,3.46,0,0,1,2.33.69,2.44,2.44,0,0,1,.79,1.94v1.78h-1.31V8.5q0-1.5-1.78-1.5t-1.78,1.5V16q0,1.5,1.78,1.5T181.49,16Z" style="fill:#606060"/><path d="M190.69,16V15H192v1a2.46,2.46,0,0,1-.77,1.94,3.38,3.38,0,0,1-2.31.69,3.46,3.46,0,0,1-2.33-.69,2.43,2.43,0,0,1-.79-1.94V8.5a2.47,2.47,0,0,1,.77-1.94,3.38,3.38,0,0,1,2.31-.69,3.46,3.46,0,0,1,2.33.69A2.44,2.44,0,0,1,192,8.5v4.13h-4.88V16q0,1.5,1.78,1.5T190.69,16ZM187.12,8.5v3h3.57v-3q0-1.5-1.78-1.5T187.12,8.5Z" style="fill:#606060"/><path d="M154.65,6.16h3.75v10a2.35,2.35,0,0,1-.68,1.82,2.67,2.67,0,0,1-1.88.62A2.6,2.6,0,0,1,154,18a2.38,2.38,0,0,1-.66-1.82V15h1.31v1.3a1.08,1.08,0,0,0,1.2,1.24,1.09,1.09,0,0,0,1.24-1.24v-9h-2.44Z" style="fill:#606060"/><path d="M161.78,16V6.16h1.31V16a1.75,1.75,0,0,0,.31,1.11,1.37,1.37,0,0,0,1.14.39,2.2,2.2,0,0,0,1.52-.64,1.76,1.76,0,0,0,.69-1.24V6.16h1.31v12.2h-.56l-.49-1.2A3.24,3.24,0,0,1,166,18.23a2.63,2.63,0,0,1-1.42.4Q161.78,18.64,161.78,16Z" style="fill:#606060"/><path d="M173.14,18.36h-1.31V6.16h1.31Z" style="fill:#606060"/><path d="M181.49,16V15h1.31v1A2.46,2.46,0,0,1,182,18a3.38,3.38,0,0,1-2.31.69A3.46,3.46,0,0,1,177.4,18a2.43,2.43,0,0,1-.79-1.94V8.5a2.47,2.47,0,0,1,.77-1.94,3.38,3.38,0,0,1,2.31-.69,3.46,3.46,0,0,1,2.33.69,2.44,2.44,0,0,1,.79,1.94v1.78h-1.31V8.5q0-1.5-1.78-1.5t-1.78,1.5V16q0,1.5,1.78,1.5T181.49,16Z" style="fill:#606060"/><path d="M190.69,16V15H192v1a2.46,2.46,0,0,1-.77,1.94,3.38,3.38,0,0,1-2.31.69,3.46,3.46,0,0,1-2.33-.69,2.43,2.43,0,0,1-.79-1.94V8.5a2.47,2.47,0,0,1,.77-1.94,3.38,3.38,0,0,1,2.31-.69,3.46,3.46,0,0,1,2.33.69A2.44,2.44,0,0,1,192,8.5v4.13h-4.88V16q0,1.5,1.78,1.5T190.69,16ZM187.12,8.5v3h3.57v-3q0-1.5-1.78-1.5T187.12,8.5Z" style="fill:#606060"/><path d="M154.65,6.16h3.75v10a2.35,2.35,0,0,1-.68,1.82,2.67,2.67,0,0,1-1.88.62A2.6,2.6,0,0,1,154,18a2.38,2.38,0,0,1-.66-1.82V15h1.31v1.3a1.08,1.08,0,0,0,1.2,1.24,1.09,1.09,0,0,0,1.24-1.24v-9h-2.44Z" style="fill:#606060"/><path d="M161.78,16V6.16h1.31V16a1.75,1.75,0,0,0,.31,1.11,1.37,1.37,0,0,0,1.14.39,2.2,2.2,0,0,0,1.52-.64,1.76,1.76,0,0,0,.69-1.24V6.16h1.31v12.2h-.56l-.49-1.2A3.24,3.24,0,0,1,166,18.23a2.63,2.63,0,0,1-1.42.4Q161.78,18.64,161.78,16Z" style="fill:#606060"/><path d="M173.14,18.36h-1.31V6.16h1.31Z" style="fill:#606060"/><path d="M181.49,16V15h1.31v1A2.46,2.46,0,0,1,182,18a3.38,3.38,0,0,1-2.31.69A3.46,3.46,0,0,1,177.4,18a2.43,2.43,0,0,1-.79-1.94V8.5a2.47,2.47,0,0,1,.77-1.94,3.38,3.38,0,0,1,2.31-.69,3.46,3.46,0,0,1,2.33.69,2.44,2.44,0,0,1,.79,1.94v1.78h-1.31V8.5q0-1.5-1.78-1.5t-1.78,1.5V16q0,1.5,1.78,1.5T181.49,16Z" style="fill:#606060"/><path d="M190.69,16V15H192v1a2.46,2.46,0,0,1-.77,1.94,3.38,3.38,0,0,1-2.31.69,3.46,3.46,0,0,1-2.33-.69,2.43,2.43,0,0,1-.79-1.94V8.5a2.47,2.47,0,0,1,.77-1.94,3.38,3.38,0,0,1,2.31-.69,3.46,3.46,0,0,1,2.33.69A2.44,2.44,0,0,1,192,8.5v4.13h-4.88V16q0,1.5,1.78,1.5T190.69,16ZM187.12,8.5v3h3.57v-3q0-1.5-1.78-1.5T187.12,8.5Z" style="fill:#606060"/><path d="M101.77,16q0,2.63-3.17,2.63T95.42,16v-1.6h1.31v1.67a1.27,1.27,0,0,0,.47,1.05,2.76,2.76,0,0,0,2.78,0,1.24,1.24,0,0,0,.47-1,3.09,3.09,0,0,0-.14-1,2.36,2.36,0,0,0-.57-.82L96.44,11a3.4,3.4,0,0,1-.8-1.14,3.88,3.88,0,0,1-.22-1.4,2.45,2.45,0,0,1,.78-1.94,3.48,3.48,0,0,1,2.36-.69q3,0,3,2.63v1.6h-1.31V8.43a1.31,1.31,0,0,0-.44-1.05,2.52,2.52,0,0,0-2.65,0,1.28,1.28,0,0,0-.44,1,3.23,3.23,0,0,0,.13,1,2.05,2.05,0,0,0,.58.79l3.36,3.23a3.7,3.7,0,0,1,.75,1.15A4,4,0,0,1,101.77,16Z"/><path d="M106.27,18.36H105V6.16h2.83a3.19,3.19,0,0,1,2.22.69,2.49,2.49,0,0,1,.76,1.93V12a2.5,2.5,0,0,1-.75,1.94,3.21,3.21,0,0,1-2.23.69h-1.52ZM109.46,12V8.78A1.42,1.42,0,0,0,109,7.68a1.77,1.77,0,0,0-1.24-.39h-1.52v6.19h1.52Q109.46,13.48,109.46,12Z"/><path d="M118.38,16V15h1.31v1a2.46,2.46,0,0,1-.77,1.94,3.38,3.38,0,0,1-2.31.69,3.46,3.46,0,0,1-2.33-.69A2.43,2.43,0,0,1,113.5,16V8.5a2.47,2.47,0,0,1,.77-1.94,3.38,3.38,0,0,1,2.31-.69,3.46,3.46,0,0,1,2.33.69,2.44,2.44,0,0,1,.79,1.94v4.13h-4.88V16q0,1.5,1.78,1.5T118.38,16ZM114.81,8.5v3h3.57v-3q0-1.5-1.78-1.5T114.81,8.5Z"/><path d="M127.76,16V15h1.31v1a2.46,2.46,0,0,1-.77,1.94,3.38,3.38,0,0,1-2.31.69,3.46,3.46,0,0,1-2.33-.69,2.43,2.43,0,0,1-.79-1.94V8.5a2.47,2.47,0,0,1,.77-1.94A3.38,3.38,0,0,1,126,5.87a3.46,3.46,0,0,1,2.33.69,2.44,2.44,0,0,1,.79,1.94v4.13H124.2V16q0,1.5,1.78,1.5T127.76,16ZM124.2,8.5v3h3.57v-3Q127.76,7,126,7T124.2,8.5Z"/><path d="M137.15,16V15h1.31v1a2.46,2.46,0,0,1-.77,1.94,3.38,3.38,0,0,1-2.31.69,3.46,3.46,0,0,1-2.33-.69,2.43,2.43,0,0,1-.79-1.94V8.5A2.47,2.47,0,0,1,133,6.56a3.38,3.38,0,0,1,2.31-.69,3.46,3.46,0,0,1,2.33.69,2.44,2.44,0,0,1,.79,1.94v1.78h-1.31V8.5q0-1.5-1.78-1.5t-1.78,1.5V16q0,1.5,1.78,1.5T137.15,16Z"/><path d="M143.06,18.36h-1.31V6.16h1.31V11.6h3.7V6.16h1.31v12.2h-1.31V12.73h-3.7Z"/><path d="M101.77,16q0,2.63-3.17,2.63T95.42,16v-1.6h1.31v1.67a1.27,1.27,0,0,0,.47,1.05,2.76,2.76,0,0,0,2.78,0,1.24,1.24,0,0,0,.47-1,3.09,3.09,0,0,0-.14-1,2.36,2.36,0,0,0-.57-.82L96.44,11a3.4,3.4,0,0,1-.8-1.14,3.88,3.88,0,0,1-.22-1.4,2.45,2.45,0,0,1,.78-1.94,3.48,3.48,0,0,1,2.36-.69q3,0,3,2.63v1.6h-1.31V8.43a1.31,1.31,0,0,0-.44-1.05,2.52,2.52,0,0,0-2.65,0,1.28,1.28,0,0,0-.44,1,3.23,3.23,0,0,0,.13,1,2.05,2.05,0,0,0,.58.79l3.36,3.23a3.7,3.7,0,0,1,.75,1.15A4,4,0,0,1,101.77,16Z"/><path d="M106.27,18.36H105V6.16h2.83a3.19,3.19,0,0,1,2.22.69,2.49,2.49,0,0,1,.76,1.93V12a2.5,2.5,0,0,1-.75,1.94,3.21,3.21,0,0,1-2.23.69h-1.52ZM109.46,12V8.78A1.42,1.42,0,0,0,109,7.68a1.77,1.77,0,0,0-1.24-.39h-1.52v6.19h1.52Q109.46,13.48,109.46,12Z"/><path d="M118.38,16V15h1.31v1a2.46,2.46,0,0,1-.77,1.94,3.38,3.38,0,0,1-2.31.69,3.46,3.46,0,0,1-2.33-.69A2.43,2.43,0,0,1,113.5,16V8.5a2.47,2.47,0,0,1,.77-1.94,3.38,3.38,0,0,1,2.31-.69,3.46,3.46,0,0,1,2.33.69,2.44,2.44,0,0,1,.79,1.94v4.13h-4.88V16q0,1.5,1.78,1.5T118.38,16ZM114.81,8.5v3h3.57v-3q0-1.5-1.78-1.5T114.81,8.5Z"/><path d="M127.76,16V15h1.31v1a2.46,2.46,0,0,1-.77,1.94,3.38,3.38,0,0,1-2.31.69,3.46,3.46,0,0,1-2.33-.69,2.43,2.43,0,0,1-.79-1.94V8.5a2.47,2.47,0,0,1,.77-1.94A3.38,3.38,0,0,1,126,5.87a3.46,3.46,0,0,1,2.33.69,2.44,2.44,0,0,1,.79,1.94v4.13H124.2V16q0,1.5,1.78,1.5T127.76,16ZM124.2,8.5v3h3.57v-3Q127.76,7,126,7T124.2,8.5Z"/><path d="M137.15,16V15h1.31v1a2.46,2.46,0,0,1-.77,1.94,3.38,3.38,0,0,1-2.31.69,3.46,3.46,0,0,1-2.33-.69,2.43,2.43,0,0,1-.79-1.94V8.5A2.47,2.47,0,0,1,133,6.56a3.38,3.38,0,0,1,2.31-.69,3.46,3.46,0,0,1,2.33.69,2.44,2.44,0,0,1,.79,1.94v1.78h-1.31V8.5q0-1.5-1.78-1.5t-1.78,1.5V16q0,1.5,1.78,1.5T137.15,16Z"/><path d="M143.06,18.36h-1.31V6.16h1.31V11.6h3.7V6.16h1.31v12.2h-1.31V12.73h-3.7Z"/><path d="M101.77,16q0,2.63-3.17,2.63T95.42,16v-1.6h1.31v1.67a1.27,1.27,0,0,0,.47,1.05,2.76,2.76,0,0,0,2.78,0,1.24,1.24,0,0,0,.47-1,3.09,3.09,0,0,0-.14-1,2.36,2.36,0,0,0-.57-.82L96.44,11a3.4,3.4,0,0,1-.8-1.14,3.88,3.88,0,0,1-.22-1.4,2.45,2.45,0,0,1,.78-1.94,3.48,3.48,0,0,1,2.36-.69q3,0,3,2.63v1.6h-1.31V8.43a1.31,1.31,0,0,0-.44-1.05,2.52,2.52,0,0,0-2.65,0,1.28,1.28,0,0,0-.44,1,3.23,3.23,0,0,0,.13,1,2.05,2.05,0,0,0,.58.79l3.36,3.23a3.7,3.7,0,0,1,.75,1.15A4,4,0,0,1,101.77,16Z"/><path d="M106.27,18.36H105V6.16h2.83a3.19,3.19,0,0,1,2.22.69,2.49,2.49,0,0,1,.76,1.93V12a2.5,2.5,0,0,1-.75,1.94,3.21,3.21,0,0,1-2.23.69h-1.52ZM109.46,12V8.78A1.42,1.42,0,0,0,109,7.68a1.77,1.77,0,0,0-1.24-.39h-1.52v6.19h1.52Q109.46,13.48,109.46,12Z"/><path d="M118.38,16V15h1.31v1a2.46,2.46,0,0,1-.77,1.94,3.38,3.38,0,0,1-2.31.69,3.46,3.46,0,0,1-2.33-.69A2.43,2.43,0,0,1,113.5,16V8.5a2.47,2.47,0,0,1,.77-1.94,3.38,3.38,0,0,1,2.31-.69,3.46,3.46,0,0,1,2.33.69,2.44,2.44,0,0,1,.79,1.94v4.13h-4.88V16q0,1.5,1.78,1.5T118.38,16ZM114.81,8.5v3h3.57v-3q0-1.5-1.78-1.5T114.81,8.5Z"/><path d="M127.76,16V15h1.31v1a2.46,2.46,0,0,1-.77,1.94,3.38,3.38,0,0,1-2.31.69,3.46,3.46,0,0,1-2.33-.69,2.43,2.43,0,0,1-.79-1.94V8.5a2.47,2.47,0,0,1,.77-1.94A3.38,3.38,0,0,1,126,5.87a3.46,3.46,0,0,1,2.33.69,2.44,2.44,0,0,1,.79,1.94v4.13H124.2V16q0,1.5,1.78,1.5T127.76,16ZM124.2,8.5v3h3.57v-3Q127.76,7,126,7T124.2,8.5Z"/><path d="M137.15,16V15h1.31v1a2.46,2.46,0,0,1-.77,1.94,3.38,3.38,0,0,1-2.31.69,3.46,3.46,0,0,1-2.33-.69,2.43,2.43,0,0,1-.79-1.94V8.5A2.47,2.47,0,0,1,133,6.56a3.38,3.38,0,0,1,2.31-.69,3.46,3.46,0,0,1,2.33.69,2.44,2.44,0,0,1,.79,1.94v1.78h-1.31V8.5q0-1.5-1.78-1.5t-1.78,1.5V16q0,1.5,1.78,1.5T137.15,16Z"/><path d="M143.06,18.36h-1.31V6.16h1.31V11.6h3.7V6.16h1.31v12.2h-1.31V12.73h-3.7Z"/><path d="M154.65,6.16h3.75v10a2.35,2.35,0,0,1-.68,1.82,2.67,2.67,0,0,1-1.88.62A2.6,2.6,0,0,1,154,18a2.38,2.38,0,0,1-.66-1.82V15h1.31v1.3a1.08,1.08,0,0,0,1.2,1.24,1.09,1.09,0,0,0,1.24-1.24v-9h-2.44Z"/><path d="M161.78,16V6.16h1.31V16a1.75,1.75,0,0,0,.31,1.11,1.37,1.37,0,0,0,1.14.39,2.2,2.2,0,0,0,1.52-.64,1.76,1.76,0,0,0,.69-1.24V6.16h1.31v12.2h-.56l-.49-1.2A3.24,3.24,0,0,1,166,18.23a2.63,2.63,0,0,1-1.42.4Q161.78,18.64,161.78,16Z"/><path d="M173.14,18.36h-1.31V6.16h1.31Z"/><path d="M181.49,16V15h1.31v1A2.46,2.46,0,0,1,182,18a3.38,3.38,0,0,1-2.31.69A3.46,3.46,0,0,1,177.4,18a2.43,2.43,0,0,1-.79-1.94V8.5a2.47,2.47,0,0,1,.77-1.94,3.38,3.38,0,0,1,2.31-.69,3.46,3.46,0,0,1,2.33.69,2.44,2.44,0,0,1,.79,1.94v1.78h-1.31V8.5q0-1.5-1.78-1.5t-1.78,1.5V16q0,1.5,1.78,1.5T181.49,16Z"/><path d="M190.69,16V15H192v1a2.46,2.46,0,0,1-.77,1.94,3.38,3.38,0,0,1-2.31.69,3.46,3.46,0,0,1-2.33-.69,2.43,2.43,0,0,1-.79-1.94V8.5a2.47,2.47,0,0,1,.77-1.94,3.38,3.38,0,0,1,2.31-.69,3.46,3.46,0,0,1,2.33.69A2.44,2.44,0,0,1,192,8.5v4.13h-4.88V16q0,1.5,1.78,1.5T190.69,16ZM187.12,8.5v3h3.57v-3q0-1.5-1.78-1.5T187.12,8.5Z"/><path d="M154.65,6.16h3.75v10a2.35,2.35,0,0,1-.68,1.82,2.67,2.67,0,0,1-1.88.62A2.6,2.6,0,0,1,154,18a2.38,2.38,0,0,1-.66-1.82V15h1.31v1.3a1.08,1.08,0,0,0,1.2,1.24,1.09,1.09,0,0,0,1.24-1.24v-9h-2.44Z"/><path d="M161.78,16V6.16h1.31V16a1.75,1.75,0,0,0,.31,1.11,1.37,1.37,0,0,0,1.14.39,2.2,2.2,0,0,0,1.52-.64,1.76,1.76,0,0,0,.69-1.24V6.16h1.31v12.2h-.56l-.49-1.2A3.24,3.24,0,0,1,166,18.23a2.63,2.63,0,0,1-1.42.4Q161.78,18.64,161.78,16Z"/><path d="M173.14,18.36h-1.31V6.16h1.31Z"/><path d="M181.49,16V15h1.31v1A2.46,2.46,0,0,1,182,18a3.38,3.38,0,0,1-2.31.69A3.46,3.46,0,0,1,177.4,18a2.43,2.43,0,0,1-.79-1.94V8.5a2.47,2.47,0,0,1,.77-1.94,3.38,3.38,0,0,1,2.31-.69,3.46,3.46,0,0,1,2.33.69,2.44,2.44,0,0,1,.79,1.94v1.78h-1.31V8.5q0-1.5-1.78-1.5t-1.78,1.5V16q0,1.5,1.78,1.5T181.49,16Z"/><path d="M190.69,16V15H192v1a2.46,2.46,0,0,1-.77,1.94,3.38,3.38,0,0,1-2.31.69,3.46,3.46,0,0,1-2.33-.69,2.43,2.43,0,0,1-.79-1.94V8.5a2.47,2.47,0,0,1,.77-1.94,3.38,3.38,0,0,1,2.31-.69,3.46,3.46,0,0,1,2.33.69A2.44,2.44,0,0,1,192,8.5v4.13h-4.88V16q0,1.5,1.78,1.5T190.69,16ZM187.12,8.5v3h3.57v-3q0-1.5-1.78-1.5T187.12,8.5Z"/><path d="M154.65,6.16h3.75v10a2.35,2.35,0,0,1-.68,1.82,2.67,2.67,0,0,1-1.88.62A2.6,2.6,0,0,1,154,18a2.38,2.38,0,0,1-.66-1.82V15h1.31v1.3a1.08,1.08,0,0,0,1.2,1.24,1.09,1.09,0,0,0,1.24-1.24v-9h-2.44Z"/><path d="M161.78,16V6.16h1.31V16a1.75,1.75,0,0,0,.31,1.11,1.37,1.37,0,0,0,1.14.39,2.2,2.2,0,0,0,1.52-.64,1.76,1.76,0,0,0,.69-1.24V6.16h1.31v12.2h-.56l-.49-1.2A3.24,3.24,0,0,1,166,18.23a2.63,2.63,0,0,1-1.42.4Q161.78,18.64,161.78,16Z"/><path d="M173.14,18.36h-1.31V6.16h1.31Z"/><path d="M181.49,16V15h1.31v1A2.46,2.46,0,0,1,182,18a3.38,3.38,0,0,1-2.31.69A3.46,3.46,0,0,1,177.4,18a2.43,2.43,0,0,1-.79-1.94V8.5a2.47,2.47,0,0,1,.77-1.94,3.38,3.38,0,0,1,2.31-.69,3.46,3.46,0,0,1,2.33.69,2.44,2.44,0,0,1,.79,1.94v1.78h-1.31V8.5q0-1.5-1.78-1.5t-1.78,1.5V16q0,1.5,1.78,1.5T181.49,16Z"/><path d="M190.69,16V15H192v1a2.46,2.46,0,0,1-.77,1.94,3.38,3.38,0,0,1-2.31.69,3.46,3.46,0,0,1-2.33-.69,2.43,2.43,0,0,1-.79-1.94V8.5a2.47,2.47,0,0,1,.77-1.94,3.38,3.38,0,0,1,2.31-.69,3.46,3.46,0,0,1,2.33.69A2.44,2.44,0,0,1,192,8.5v4.13h-4.88V16q0,1.5,1.78,1.5T190.69,16ZM187.12,8.5v3h3.57v-3q0-1.5-1.78-1.5T187.12,8.5Z"/><path d="M101.77,16q0,2.63-3.17,2.63T95.42,16v-1.6h1.31v1.67a1.27,1.27,0,0,0,.47,1.05,2.76,2.76,0,0,0,2.78,0,1.24,1.24,0,0,0,.47-1,3.09,3.09,0,0,0-.14-1,2.36,2.36,0,0,0-.57-.82L96.44,11a3.4,3.4,0,0,1-.8-1.14,3.88,3.88,0,0,1-.22-1.4,2.45,2.45,0,0,1,.78-1.94,3.48,3.48,0,0,1,2.36-.69q3,0,3,2.63v1.6h-1.31V8.43a1.31,1.31,0,0,0-.44-1.05,2.52,2.52,0,0,0-2.65,0,1.28,1.28,0,0,0-.44,1,3.23,3.23,0,0,0,.13,1,2.05,2.05,0,0,0,.58.79l3.36,3.23a3.7,3.7,0,0,1,.75,1.15A4,4,0,0,1,101.77,16Z"/><path d="M106.27,18.36H105V6.16h2.83a3.19,3.19,0,0,1,2.22.69,2.49,2.49,0,0,1,.76,1.93V12a2.5,2.5,0,0,1-.75,1.94,3.21,3.21,0,0,1-2.23.69h-1.52ZM109.46,12V8.78A1.42,1.42,0,0,0,109,7.68a1.77,1.77,0,0,0-1.24-.39h-1.52v6.19h1.52Q109.46,13.48,109.46,12Z"/><path d="M118.38,16V15h1.31v1a2.46,2.46,0,0,1-.77,1.94,3.38,3.38,0,0,1-2.31.69,3.46,3.46,0,0,1-2.33-.69A2.43,2.43,0,0,1,113.5,16V8.5a2.47,2.47,0,0,1,.77-1.94,3.38,3.38,0,0,1,2.31-.69,3.46,3.46,0,0,1,2.33.69,2.44,2.44,0,0,1,.79,1.94v4.13h-4.88V16q0,1.5,1.78,1.5T118.38,16ZM114.81,8.5v3h3.57v-3q0-1.5-1.78-1.5T114.81,8.5Z"/><path d="M127.76,16V15h1.31v1a2.46,2.46,0,0,1-.77,1.94,3.38,3.38,0,0,1-2.31.69,3.46,3.46,0,0,1-2.33-.69,2.43,2.43,0,0,1-.79-1.94V8.5a2.47,2.47,0,0,1,.77-1.94A3.38,3.38,0,0,1,126,5.87a3.46,3.46,0,0,1,2.33.69,2.44,2.44,0,0,1,.79,1.94v4.13H124.2V16q0,1.5,1.78,1.5T127.76,16ZM124.2,8.5v3h3.57v-3Q127.76,7,126,7T124.2,8.5Z"/><path d="M137.15,16V15h1.31v1a2.46,2.46,0,0,1-.77,1.94,3.38,3.38,0,0,1-2.31.69,3.46,3.46,0,0,1-2.33-.69,2.43,2.43,0,0,1-.79-1.94V8.5A2.47,2.47,0,0,1,133,6.56a3.38,3.38,0,0,1,2.31-.69,3.46,3.46,0,0,1,2.33.69,2.44,2.44,0,0,1,.79,1.94v1.78h-1.31V8.5q0-1.5-1.78-1.5t-1.78,1.5V16q0,1.5,1.78,1.5T137.15,16Z"/><path d="M143.06,18.36h-1.31V6.16h1.31V11.6h3.7V6.16h1.31v12.2h-1.31V12.73h-3.7Z"/><path d="M101.77,16q0,2.63-3.17,2.63T95.42,16v-1.6h1.31v1.67a1.27,1.27,0,0,0,.47,1.05,2.76,2.76,0,0,0,2.78,0,1.24,1.24,0,0,0,.47-1,3.09,3.09,0,0,0-.14-1,2.36,2.36,0,0,0-.57-.82L96.44,11a3.4,3.4,0,0,1-.8-1.14,3.88,3.88,0,0,1-.22-1.4,2.45,2.45,0,0,1,.78-1.94,3.48,3.48,0,0,1,2.36-.69q3,0,3,2.63v1.6h-1.31V8.43a1.31,1.31,0,0,0-.44-1.05,2.52,2.52,0,0,0-2.65,0,1.28,1.28,0,0,0-.44,1,3.23,3.23,0,0,0,.13,1,2.05,2.05,0,0,0,.58.79l3.36,3.23a3.7,3.7,0,0,1,.75,1.15A4,4,0,0,1,101.77,16Z"/><path d="M106.27,18.36H105V6.16h2.83a3.19,3.19,0,0,1,2.22.69,2.49,2.49,0,0,1,.76,1.93V12a2.5,2.5,0,0,1-.75,1.94,3.21,3.21,0,0,1-2.23.69h-1.52ZM109.46,12V8.78A1.42,1.42,0,0,0,109,7.68a1.77,1.77,0,0,0-1.24-.39h-1.52v6.19h1.52Q109.46,13.48,109.46,12Z"/><path d="M118.38,16V15h1.31v1a2.46,2.46,0,0,1-.77,1.94,3.38,3.38,0,0,1-2.31.69,3.46,3.46,0,0,1-2.33-.69A2.43,2.43,0,0,1,113.5,16V8.5a2.47,2.47,0,0,1,.77-1.94,3.38,3.38,0,0,1,2.31-.69,3.46,3.46,0,0,1,2.33.69,2.44,2.44,0,0,1,.79,1.94v4.13h-4.88V16q0,1.5,1.78,1.5T118.38,16ZM114.81,8.5v3h3.57v-3q0-1.5-1.78-1.5T114.81,8.5Z"/><path d="M127.76,16V15h1.31v1a2.46,2.46,0,0,1-.77,1.94,3.38,3.38,0,0,1-2.31.69,3.46,3.46,0,0,1-2.33-.69,2.43,2.43,0,0,1-.79-1.94V8.5a2.47,2.47,0,0,1,.77-1.94A3.38,3.38,0,0,1,126,5.87a3.46,3.46,0,0,1,2.33.69,2.44,2.44,0,0,1,.79,1.94v4.13H124.2V16q0,1.5,1.78,1.5T127.76,16ZM124.2,8.5v3h3.57v-3Q127.76,7,126,7T124.2,8.5Z"/><path d="M137.15,16V15h1.31v1a2.46,2.46,0,0,1-.77,1.94,3.38,3.38,0,0,1-2.31.69,3.46,3.46,0,0,1-2.33-.69,2.43,2.43,0,0,1-.79-1.94V8.5A2.47,2.47,0,0,1,133,6.56a3.38,3.38,0,0,1,2.31-.69,3.46,3.46,0,0,1,2.33.69,2.44,2.44,0,0,1,.79,1.94v1.78h-1.31V8.5q0-1.5-1.78-1.5t-1.78,1.5V16q0,1.5,1.78,1.5T137.15,16Z"/><path d="M143.06,18.36h-1.31V6.16h1.31V11.6h3.7V6.16h1.31v12.2h-1.31V12.73h-3.7Z"/><path d="M154.65,6.16h3.75v10a2.35,2.35,0,0,1-.68,1.82,2.67,2.67,0,0,1-1.88.62A2.6,2.6,0,0,1,154,18a2.38,2.38,0,0,1-.66-1.82V15h1.31v1.3a1.08,1.08,0,0,0,1.2,1.24,1.09,1.09,0,0,0,1.24-1.24v-9h-2.44Z"/><path d="M161.78,16V6.16h1.31V16a1.75,1.75,0,0,0,.31,1.11,1.37,1.37,0,0,0,1.14.39,2.2,2.2,0,0,0,1.52-.64,1.76,1.76,0,0,0,.69-1.24V6.16h1.31v12.2h-.56l-.49-1.2A3.24,3.24,0,0,1,166,18.23a2.63,2.63,0,0,1-1.42.4Q161.78,18.64,161.78,16Z"/><path d="M173.14,18.36h-1.31V6.16h1.31Z"/><path d="M181.49,16V15h1.31v1A2.46,2.46,0,0,1,182,18a3.38,3.38,0,0,1-2.31.69A3.46,3.46,0,0,1,177.4,18a2.43,2.43,0,0,1-.79-1.94V8.5a2.47,2.47,0,0,1,.77-1.94,3.38,3.38,0,0,1,2.31-.69,3.46,3.46,0,0,1,2.33.69,2.44,2.44,0,0,1,.79,1.94v1.78h-1.31V8.5q0-1.5-1.78-1.5t-1.78,1.5V16q0,1.5,1.78,1.5T181.49,16Z"/><path d="M190.69,16V15H192v1a2.46,2.46,0,0,1-.77,1.94,3.38,3.38,0,0,1-2.31.69,3.46,3.46,0,0,1-2.33-.69,2.43,2.43,0,0,1-.79-1.94V8.5a2.47,2.47,0,0,1,.77-1.94,3.38,3.38,0,0,1,2.31-.69,3.46,3.46,0,0,1,2.33.69A2.44,2.44,0,0,1,192,8.5v4.13h-4.88V16q0,1.5,1.78,1.5T190.69,16ZM187.12,8.5v3h3.57v-3q0-1.5-1.78-1.5T187.12,8.5Z"/><path d="M154.65,6.16h3.75v10a2.35,2.35,0,0,1-.68,1.82,2.67,2.67,0,0,1-1.88.62A2.6,2.6,0,0,1,154,18a2.38,2.38,0,0,1-.66-1.82V15h1.31v1.3a1.08,1.08,0,0,0,1.2,1.24,1.09,1.09,0,0,0,1.24-1.24v-9h-2.44Z"/><path d="M161.78,16V6.16h1.31V16a1.75,1.75,0,0,0,.31,1.11,1.37,1.37,0,0,0,1.14.39,2.2,2.2,0,0,0,1.52-.64,1.76,1.76,0,0,0,.69-1.24V6.16h1.31v12.2h-.56l-.49-1.2A3.24,3.24,0,0,1,166,18.23a2.63,2.63,0,0,1-1.42.4Q161.78,18.64,161.78,16Z"/><path d="M173.14,18.36h-1.31V6.16h1.31Z"/><path d="M181.49,16V15h1.31v1A2.46,2.46,0,0,1,182,18a3.38,3.38,0,0,1-2.31.69A3.46,3.46,0,0,1,177.4,18a2.43,2.43,0,0,1-.79-1.94V8.5a2.47,2.47,0,0,1,.77-1.94,3.38,3.38,0,0,1,2.31-.69,3.46,3.46,0,0,1,2.33.69,2.44,2.44,0,0,1,.79,1.94v1.78h-1.31V8.5q0-1.5-1.78-1.5t-1.78,1.5V16q0,1.5,1.78,1.5T181.49,16Z"/><path d="M190.69,16V15H192v1a2.46,2.46,0,0,1-.77,1.94,3.38,3.38,0,0,1-2.31.69,3.46,3.46,0,0,1-2.33-.69,2.43,2.43,0,0,1-.79-1.94V8.5a2.47,2.47,0,0,1,.77-1.94,3.38,3.38,0,0,1,2.31-.69,3.46,3.46,0,0,1,2.33.69A2.44,2.44,0,0,1,192,8.5v4.13h-4.88V16q0,1.5,1.78,1.5T190.69,16ZM187.12,8.5v3h3.57v-3q0-1.5-1.78-1.5T187.12,8.5Z"/></svg>